<?xml version="1.0" encoding="utf-8"?>
<!-- Generator: Adobe Illustrator 16.0.0, SVG Export Plug-In . SVG Version: 6.00 Build 0)  -->
<!DOCTYPE svg PUBLIC "-//W3C//DTD SVG 1.1//EN" "http://www.w3.org/Graphics/SVG/1.1/DTD/svg11.dtd">
<svg version="1.1" id="Layer_1" xmlns="http://www.w3.org/2000/svg" xmlns:xlink="http://www.w3.org/1999/xlink" x="0px" y="0px"
	 width="398.245px" height="82.181px" viewBox="0 0 398.245 82.181" enable-background="new 0 0 398.245 82.181"
	 xml:space="preserve">
<g>
	<g>
		<polygon fill="#E60013" points="58.263,33.203 29.123,0 0,33.203 		"/>
		<polygon fill="#009944" points="116.527,33.203 87.393,0 58.263,33.203 		"/>
		<polygon fill="#004EA2" points="174.785,33.203 145.661,0 116.527,33.203 		"/>
	</g>
	<g opacity="0.7">
		<rect x="0.353" y="40.134" fill="#B6B5B6" width="3.998" height="40.568"/>
		<rect x="57.064" y="40.134" fill="#B6B5B6" width="4" height="40.568"/>
		<rect x="113.774" y="40.134" fill="#B6B5B6" width="4.003" height="40.568"/>
		<rect x="170.483" y="40.134" fill="#B6B5B6" width="4.002" height="40.568"/>
	</g>
	<g>
		<path fill="#231815" d="M14.906,40.543h17.53c4.779,0,8.173,1.416,10.195,4.255c1.178,1.68,1.773,3.614,1.773,5.812
			c0,2.557-0.733,4.657-2.205,6.302c-0.764,0.865-1.859,1.656-3.291,2.377c2.104,0.792,3.684,1.685,4.721,2.678
			c1.849,1.769,2.771,4.208,2.771,7.324c0,2.616-0.828,4.985-2.476,7.099c-2.462,3.169-6.379,4.755-11.754,4.755H14.906V40.543z
			 M30.386,57.72c2.328,0,4.128-0.322,5.421-0.968c2.029-1.01,3.048-2.838,3.048-5.474c0-2.658-1.079-4.438-3.238-5.364
			c-1.219-0.515-3.025-0.771-5.419-0.771h-9.825V57.72H30.386z M32.257,76.374c3.384,0,5.792-0.978,7.231-2.92
			c0.907-1.227,1.363-2.711,1.363-4.454c0-2.937-1.322-4.938-3.962-6.002c-1.408-0.566-3.263-0.855-5.567-0.855H20.373v14.231
			H32.257z"/>
		<path fill="#231815" d="M74.869,40.543h28.109v4.943H80.333v12.32h19.871v4.775H80.333v18.563h-5.464V40.543z"/>
		<path fill="#231815" d="M157.372,43.558c2.806,2.703,4.362,5.781,4.675,9.216h-5.382c-0.598-2.585-1.791-4.634-3.58-6.146
			c-1.79-1.51-4.299-2.271-7.53-2.271c-3.942,0-7.117,1.403-9.546,4.196c-2.421,2.793-3.632,7.08-3.632,12.859
			c0,4.728,1.088,8.562,3.273,11.504c2.185,2.941,5.446,4.415,9.781,4.415c3.985,0,7.021-1.555,9.107-4.657
			c1.106-1.639,1.929-3.789,2.474-6.45h5.383c-0.477,4.272-2.041,7.849-4.699,10.742c-3.185,3.479-7.479,5.216-12.884,5.216
			c-4.657,0-8.571-1.42-11.739-4.275c-4.166-3.767-6.252-9.589-6.252-17.463c0-5.976,1.566-10.877,4.7-14.706
			c3.392-4.156,8.063-6.232,14.021-6.232C150.621,39.505,154.56,40.855,157.372,43.558z"/>
	</g>
	<g>
		<path fill="#231815" d="M213.853,62.936c0,0.851-0.195,1.46-0.547,1.83c-0.328,0.337-0.838,0.52-1.539,0.52h-19.542
			c-0.706,0-1.224-0.183-1.542-0.52c-0.359-0.37-0.532-0.979-0.532-1.83v-8.55h3.5v2.383h16.686v-2.383h3.516V62.936z
			 M193.651,62.162h16.686v-2.288h-16.686V62.162z M200.218,80.149v-8.373h-10.986v-3.152h25.537v3.152h-11.039v8.373H200.218z"/>
		<path fill="#231815" d="M230.122,54.386c0,2.9,0.43,5.154,1.305,6.75c1.049,1.839,2.729,2.934,5.098,3.237v3.362
			c-1.688-0.104-3.229-0.541-4.578-1.3c-1.566-0.89-2.775-2.149-3.633-3.789c-0.916,1.64-2.189,2.905-3.875,3.807
			c-1.422,0.783-2.879,1.201-4.41,1.282v-3.337c2.396-0.34,4.1-1.427,5.078-3.263c0.822-1.538,1.236-3.792,1.236-6.75H230.122z
			 M244.479,62.975v8.705h-3.559V54.386h3.559v5.452h3.561v3.138H244.479z M221.917,71.02h3.553v5.693h19.254v3.169H224.04
			c-0.707,0-1.229-0.183-1.578-0.542c-0.375-0.362-0.545-0.943-0.545-1.766V71.02z"/>
		<path fill="#231815" d="M262.804,55.419c1.537,1.299,2.307,2.958,2.307,4.988c0,1.981-0.77,3.652-2.307,4.954
			c-1.396,1.216-3.076,1.834-5.023,1.834c-1.998,0-3.689-0.618-5.115-1.834c-1.521-1.302-2.279-2.973-2.279-4.954
			c0-2.029,0.758-3.688,2.279-4.988c1.439-1.21,3.145-1.822,5.115-1.822C259.728,53.597,261.407,54.209,262.804,55.419z
			 M255.034,57.785c-0.828,0.725-1.234,1.592-1.234,2.622c0,1.021,0.406,1.897,1.234,2.63c0.783,0.691,1.695,1.033,2.746,1.033
			c0.994,0,1.887-0.342,2.678-1.033c0.813-0.752,1.225-1.625,1.225-2.63c0-1.03-0.412-1.897-1.225-2.622
			c-0.791-0.693-1.684-1.03-2.678-1.03C256.729,56.755,255.817,57.092,255.034,57.785z M271.815,56.247v-1.861h3.547v11.68h-3.547
			v-1.939h-5.258v-3.113h5.258V59.36h-5.258v-3.113H271.815z M263.671,71.068c-0.986,0.893-1.482,1.965-1.482,3.214
			c0,1.222,0.496,2.291,1.482,3.184c0.959,0.861,2.053,1.308,3.307,1.308c1.268,0,2.375-0.446,3.32-1.308
			c0.998-0.876,1.518-1.932,1.518-3.184c0-1.274-0.52-2.329-1.518-3.214c-0.945-0.845-2.053-1.266-3.32-1.266
			C265.724,69.802,264.63,70.223,263.671,71.068z M272.759,68.612c1.771,1.496,2.645,3.383,2.645,5.67
			c0,2.269-0.873,4.146-2.645,5.643c-1.67,1.4-3.604,2.103-5.838,2.103c-2.209,0-4.135-0.702-5.773-2.103
			c-1.705-1.496-2.561-3.374-2.561-5.643c0-2.287,0.855-4.174,2.561-5.67c1.639-1.37,3.564-2.061,5.773-2.061
			C269.155,66.551,271.089,67.242,272.759,68.612z"/>
		<path fill="#231815" d="M291.985,64.126c-0.979-0.73-1.77-1.662-2.4-2.788c-0.879,1.553-2.178,2.751-3.861,3.655
			c-1.432,0.735-2.895,1.14-4.406,1.19v-3.282c2.311-0.37,3.982-1.366,5.004-2.975c0.863-1.354,1.311-3.195,1.326-5.542h3.787
			c-0.025,2.316,0.414,4.16,1.326,5.542c1.053,1.608,2.723,2.594,5.051,2.941v2.889c1.939,0.376,3.559,1.227,4.85,2.594
			c1.408,1.451,2.109,3.178,2.109,5.192c0,2.33-0.883,4.242-2.652,5.752c-1.666,1.418-3.621,2.125-5.883,2.125
			c-2.264,0-4.205-0.707-5.838-2.125c-1.746-1.51-2.617-3.422-2.617-5.752c0-2.094,0.715-3.87,2.17-5.353
			c1.355-1.37,3.043-2.206,5.074-2.504C293.894,65.336,292.882,64.817,291.985,64.126z M292.978,70.288
			c-1.012,0.89-1.512,1.987-1.512,3.276c0,1.257,0.5,2.338,1.512,3.239c0.955,0.881,2.064,1.324,3.307,1.324
			c1.262,0,2.379-0.443,3.332-1.324c1.018-0.901,1.518-1.982,1.518-3.239c0-1.289-0.5-2.387-1.518-3.276
			c-0.953-0.845-2.07-1.266-3.332-1.266C295.042,69.022,293.933,69.443,292.978,70.288z M305.823,61.934v4.303h-3.553V54.386h3.553
			v4.376h3.568v3.172H305.823z"/>
		<path fill="#231815" d="M325.679,55.158c1.576,1.348,2.359,3.074,2.359,5.143c0,2.071-0.783,3.77-2.359,5.129
			c-1.465,1.266-3.225,1.905-5.256,1.905c-2.064,0-3.826-0.64-5.295-1.905c-1.578-1.359-2.357-3.058-2.357-5.129
			c0-2.068,0.779-3.795,2.357-5.143c1.469-1.258,3.23-1.878,5.295-1.878C322.454,53.28,324.214,53.9,325.679,55.158z
			 M317.587,57.588c-0.816,0.741-1.23,1.656-1.23,2.712c0,1.038,0.414,1.951,1.23,2.7c0.811,0.716,1.75,1.069,2.836,1.069
			c1.035,0,1.955-0.354,2.756-1.069c0.834-0.749,1.268-1.662,1.268-2.7c0-1.056-0.434-1.971-1.268-2.712
			c-0.801-0.702-1.721-1.061-2.756-1.061C319.337,56.528,318.397,56.887,317.587,57.588z M318.872,80.031v-7.023h-6.84v-3.169
			h21.154V54.372h3.555v25.659h-3.555v-7.023h-10.799v7.023H318.872z"/>
		<path fill="#231815" d="M351.024,67.093h-8.289v-3.102h3.525c-0.674-0.551-1.221-1.179-1.592-1.881
			c-0.379-0.772-0.58-1.598-0.58-2.501c0-1.92,0.77-3.503,2.297-4.744c1.424-1.14,3.133-1.721,5.115-1.721
			c1.896,0,3.525,0.581,4.92,1.721c1.512,1.255,2.254,2.835,2.254,4.744c0,0.903-0.191,1.729-0.602,2.501
			c-0.375,0.702-0.891,1.33-1.568,1.881h4.104v3.102h-6.084v5.974h-3.5V67.093z M348.618,57.072
			c-0.736,0.727-1.111,1.583-1.111,2.566c0,0.954,0.375,1.802,1.111,2.549c0.779,0.743,1.691,1.128,2.75,1.128
			c1.021,0,1.904-0.385,2.67-1.128c0.746-0.747,1.129-1.595,1.129-2.549c0-0.982-0.383-1.839-1.129-2.566
			c-0.766-0.738-1.648-1.089-2.67-1.089C350.31,55.983,349.397,56.334,348.618,57.072z M363.782,69.205V54.389h3.557v20.053h-3.557
			v-2.175h-6.008v-3.063H363.782z M344.782,70.108h3.51v6.605h19.305v3.149h-20.676c-0.715,0-1.246-0.163-1.6-0.522
			c-0.355-0.362-0.539-0.974-0.539-1.811V70.108z"/>
		<path fill="#231815" d="M394.688,76.362h-21.061v-3.144h6.881v-4.154c-1.725-0.346-3.121-1.092-4.217-2.229
			c-1.15-1.238-1.711-2.709-1.711-4.424c0-0.722,0.141-1.432,0.441-2.159c0.291-0.623,0.701-1.201,1.25-1.76h-0.549h-1.717v-3.119
			h6.313v-2.465h3.832v2.465h6.26v3.119h-1.146h-1.24c0.543,0.514,0.963,1.089,1.268,1.749c0.338,0.679,0.514,1.411,0.514,2.17
			c0,1.715-0.58,3.186-1.717,4.424c-1.076,1.137-2.439,1.883-4.119,2.229v4.154h10.719V54.344h3.557v25.631h-3.557V76.362z
			 M379.339,59.663c-0.813,0.744-1.203,1.656-1.203,2.749c0,1.063,0.391,1.984,1.203,2.753c0.807,0.761,1.771,1.12,2.889,1.12
			c1.072,0,2.008-0.359,2.811-1.12c0.803-0.769,1.209-1.689,1.209-2.753c0-1.093-0.406-2.005-1.209-2.749
			c-0.783-0.732-1.711-1.105-2.811-1.105C381.11,58.557,380.146,58.93,379.339,59.663z"/>
	</g>
	<g>
		<path fill="#231815" d="M189.994,32.832h5.069c1.385,0,2.365,0.413,2.952,1.234c0.342,0.49,0.514,1.048,0.514,1.683
			c0,0.747-0.213,1.354-0.645,1.83c-0.221,0.25-0.542,0.478-0.958,0.689c0.61,0.229,1.069,0.488,1.372,0.772
			c0.539,0.518,0.803,1.224,0.803,2.126c0,0.758-0.238,1.443-0.713,2.056c-0.713,0.918-1.85,1.378-3.403,1.378h-4.991V32.832z
			 M194.458,37.808c0.673,0,1.196-0.093,1.572-0.278c0.584-0.292,0.879-0.823,0.879-1.587c0-0.773-0.313-1.287-0.938-1.555
			c-0.354-0.15-0.877-0.226-1.569-0.226h-2.845v3.646H194.458z M194.997,43.237c0.98,0,1.68-0.282,2.095-0.851
			c0.265-0.354,0.396-0.786,0.396-1.291c0-0.854-0.386-1.433-1.147-1.743c-0.41-0.167-0.945-0.249-1.614-0.249h-3.169v4.133H194.997
			z"/>
		<path fill="#231815" d="M202.704,32.832v7.267c0,0.851,0.162,1.561,0.486,2.126c0.477,0.854,1.283,1.278,2.41,1.278
			c1.359,0,2.279-0.46,2.766-1.382c0.266-0.5,0.396-1.175,0.396-2.022v-7.267h1.596v6.605c0,1.447-0.193,2.559-0.584,3.337
			c-0.713,1.422-2.061,2.131-4.045,2.131c-1.982,0-3.332-0.709-4.037-2.131c-0.391-0.779-0.584-1.89-0.584-3.337v-6.605H202.704z"/>
		<path fill="#231815" d="M213.851,40.809c0.037,0.664,0.188,1.204,0.453,1.622c0.51,0.775,1.406,1.164,2.691,1.164
			c0.576,0,1.1-0.085,1.574-0.254c0.914-0.333,1.373-0.923,1.373-1.777c0-0.639-0.193-1.092-0.58-1.367
			c-0.395-0.265-1.008-0.494-1.844-0.689l-1.543-0.361c-1.004-0.234-1.717-0.49-2.135-0.774c-0.725-0.493-1.086-1.226-1.086-2.205
			c0-1.057,0.355-1.926,1.066-2.604c0.709-0.679,1.715-1.016,3.016-1.016c1.197,0,2.215,0.295,3.051,0.893
			c0.838,0.595,1.258,1.549,1.258,2.862h-1.49c-0.08-0.629-0.242-1.116-0.49-1.453c-0.469-0.616-1.256-0.922-2.371-0.922
			c-0.898,0-1.547,0.198-1.939,0.594c-0.395,0.395-0.592,0.851-0.592,1.373c0,0.579,0.234,0.998,0.699,1.265
			c0.305,0.174,0.992,0.385,2.064,0.643l1.594,0.372c0.771,0.184,1.365,0.428,1.785,0.746c0.719,0.551,1.08,1.349,1.08,2.394
			c0,1.298-0.463,2.23-1.383,2.792c-0.922,0.559-1.994,0.836-3.215,0.836c-1.422,0-2.539-0.371-3.342-1.117
			c-0.809-0.74-1.205-1.746-1.188-3.015H213.851z"/>
		<path fill="#231815" d="M227.196,32.832h1.801l4.262,11.769h-1.746l-1.229-3.541h-4.604l-1.281,3.541h-1.633L227.196,32.832z
			 M229.835,39.77l-1.807-5.196l-1.875,5.196H229.835z"/>
		<path fill="#231815" d="M234.688,32.832h1.865l5.861,9.511v-9.511h1.506v11.769h-1.775l-5.951-9.513v9.513h-1.506V32.832z"/>
		<path fill="#231815" d="M251.226,32.832h8.158v1.438h-6.559v3.575h5.768v1.403h-5.768v5.353h-1.6V32.832z"/>
		<path fill="#231815" d="M261.438,32.832h1.598v11.769h-1.598V32.832z"/>
		<path fill="#231815" d="M265.653,32.832h1.6v10.369h5.873v1.4h-7.473V32.832z"/>
		<path fill="#231815" d="M274.714,32.832h2.273l3.373,9.95l3.365-9.95h2.252v11.769h-1.506v-6.944c0-0.239,0.008-0.639,0.027-1.192
			c0.02-0.559,0.027-1.158,0.027-1.79l-3.385,9.926h-1.578l-3.393-9.926v0.359c0,0.291,0.01,0.727,0.025,1.318
			c0.018,0.594,0.027,1.026,0.027,1.304v6.944h-1.51V32.832z"/>
		<path fill="#231815" d="M301.323,33.685c0.816,0.782,1.268,1.674,1.359,2.668h-1.545c-0.178-0.748-0.525-1.342-1.045-1.781
			c-0.523-0.444-1.252-0.663-2.195-0.663c-1.146,0-2.07,0.408-2.779,1.218c-0.709,0.815-1.061,2.064-1.061,3.743
			c0,1.381,0.318,2.494,0.953,3.35c0.633,0.856,1.586,1.283,2.846,1.283c1.162,0,2.041-0.45,2.648-1.354
			c0.322-0.477,0.564-1.102,0.721-1.879h1.549c-0.141,1.239-0.596,2.283-1.367,3.12c-0.93,1.012-2.172,1.516-3.744,1.516
			c-1.352,0-2.488-0.413-3.406-1.241c-1.213-1.095-1.816-2.789-1.816-5.072c0-1.738,0.453-3.158,1.367-4.274
			c0.984-1.204,2.344-1.811,4.076-1.811C299.36,32.508,300.507,32.9,301.323,33.685z"/>
		<path fill="#231815" d="M314.503,34.513c0.777,1.042,1.166,2.375,1.166,3.999c0,1.757-0.443,3.218-1.336,4.379
			c-1.047,1.37-2.539,2.051-4.475,2.051c-1.811,0-3.232-0.598-4.266-1.791c-0.924-1.155-1.387-2.61-1.387-4.374
			c0-1.596,0.398-2.956,1.186-4.087c1.016-1.454,2.512-2.181,4.498-2.181C311.964,32.508,313.503,33.176,314.503,34.513z
			 M313.11,42.023c0.627-1.011,0.941-2.173,0.941-3.485c0-1.391-0.359-2.511-1.086-3.356c-0.725-0.851-1.713-1.273-2.971-1.273
			c-1.219,0-2.213,0.419-2.982,1.26c-0.77,0.839-1.15,2.077-1.15,3.714c0,1.308,0.33,2.413,0.988,3.31
			c0.66,0.899,1.732,1.347,3.209,1.347C311.466,43.54,312.483,43.035,313.11,42.023z"/>
		<path fill="#231815" d="M317.515,32.832h2.273l3.379,9.95l3.359-9.95h2.256v11.769h-1.512v-6.944c0-0.239,0.01-0.639,0.029-1.192
			c0.018-0.559,0.023-1.158,0.023-1.79l-3.375,9.926h-1.586l-3.389-9.926v0.359c0,0.291,0.008,0.727,0.027,1.318
			c0.018,0.594,0.023,1.026,0.023,1.304v6.944h-1.51V32.832z"/>
		<path fill="#231815" d="M331.171,32.832h2.271l3.379,9.95l3.363-9.95h2.254v11.769h-1.512v-6.944c0-0.239,0.012-0.639,0.029-1.192
			c0.016-0.559,0.025-1.158,0.025-1.79l-3.381,9.926h-1.58l-3.393-9.926v0.359c0,0.291,0.006,0.727,0.025,1.318
			c0.02,0.594,0.025,1.026,0.025,1.304v6.944h-1.508V32.832z"/>
		<path fill="#231815" d="M345.222,32.832h1.604v11.769h-1.604V32.832z"/>
		<path fill="#231815" d="M350.466,40.809c0.037,0.664,0.189,1.204,0.455,1.622c0.508,0.775,1.404,1.164,2.693,1.164
			c0.572,0,1.098-0.085,1.57-0.254c0.914-0.333,1.371-0.923,1.371-1.777c0-0.639-0.193-1.092-0.58-1.367
			c-0.391-0.265-1.008-0.494-1.842-0.689l-1.539-0.361c-1.008-0.234-1.723-0.49-2.141-0.774c-0.719-0.493-1.084-1.226-1.084-2.205
			c0-1.057,0.357-1.926,1.066-2.604c0.711-0.679,1.717-1.016,3.018-1.016c1.193,0,2.211,0.295,3.047,0.893
			c0.84,0.595,1.262,1.549,1.262,2.862h-1.494c-0.076-0.629-0.238-1.116-0.492-1.453c-0.461-0.616-1.254-0.922-2.367-0.922
			c-0.9,0-1.545,0.198-1.939,0.594c-0.393,0.395-0.588,0.851-0.588,1.373c0,0.579,0.229,0.998,0.695,1.265
			c0.303,0.174,0.99,0.385,2.063,0.643l1.6,0.372c0.77,0.184,1.361,0.428,1.781,0.746c0.721,0.551,1.084,1.349,1.084,2.394
			c0,1.298-0.465,2.23-1.387,2.792c-0.922,0.559-1.992,0.836-3.213,0.836c-1.424,0-2.539-0.371-3.346-1.117
			c-0.807-0.74-1.199-1.746-1.186-3.015H350.466z"/>
		<path fill="#231815" d="M361.399,40.809c0.037,0.664,0.189,1.204,0.455,1.622c0.508,0.775,1.406,1.164,2.689,1.164
			c0.578,0,1.102-0.085,1.574-0.254c0.916-0.333,1.371-0.923,1.371-1.777c0-0.639-0.191-1.092-0.576-1.367
			c-0.395-0.265-1.01-0.494-1.842-0.689l-1.547-0.361c-1.004-0.234-1.715-0.49-2.137-0.774c-0.725-0.493-1.078-1.226-1.078-2.205
			c0-1.057,0.348-1.926,1.063-2.604c0.707-0.679,1.713-1.016,3.014-1.016c1.201,0,2.215,0.295,3.055,0.893
			c0.834,0.595,1.256,1.549,1.256,2.862h-1.49c-0.078-0.629-0.244-1.116-0.492-1.453c-0.465-0.616-1.258-0.922-2.367-0.922
			c-0.9,0-1.549,0.198-1.943,0.594c-0.393,0.395-0.592,0.851-0.592,1.373c0,0.579,0.236,0.998,0.697,1.265
			c0.309,0.174,0.998,0.385,2.07,0.643l1.594,0.372c0.77,0.184,1.361,0.428,1.781,0.746c0.723,0.551,1.084,1.349,1.084,2.394
			c0,1.298-0.465,2.23-1.385,2.792c-0.924,0.559-1.996,0.836-3.215,0.836c-1.426,0-2.539-0.371-3.344-1.117
			c-0.807-0.74-1.201-1.746-1.186-3.015H361.399z"/>
		<path fill="#231815" d="M371.649,32.832h1.594v11.769h-1.594V32.832z"/>
		<path fill="#231815" d="M385.542,34.513c0.781,1.042,1.172,2.375,1.172,3.999c0,1.757-0.443,3.218-1.338,4.379
			c-1.047,1.37-2.537,2.051-4.477,2.051c-1.809,0-3.229-0.598-4.268-1.791c-0.922-1.155-1.385-2.61-1.385-4.374
			c0-1.596,0.396-2.956,1.188-4.087c1.018-1.454,2.514-2.181,4.498-2.181C383.009,32.508,384.546,33.176,385.542,34.513z
			 M384.155,42.023c0.625-1.011,0.939-2.173,0.939-3.485c0-1.391-0.363-2.511-1.082-3.356c-0.729-0.851-1.719-1.273-2.975-1.273
			c-1.217,0-2.213,0.419-2.984,1.26c-0.766,0.839-1.152,2.077-1.152,3.714c0,1.308,0.334,2.413,0.988,3.31
			c0.664,0.899,1.732,1.347,3.213,1.347C382.505,43.54,383.526,43.035,384.155,42.023z"/>
		<path fill="#231815" d="M388.614,32.832h1.865l5.863,9.511v-9.511h1.512v11.769h-1.779l-5.953-9.513v9.513h-1.508V32.832z"/>
	</g>
</g>
</svg>
